<svg xmlns="http://www.w3.org/2000/svg" xmlns:xlink="http://www.w3.org/1999/xlink" width="1080" zoomAndPan="magnify" viewBox="0 0 810 809.999993" height="1080" preserveAspectRatio="xMidYMid meet" version="1.0"><path fill="#ffffff" d="M 243 648 C 198.246094 648 162.40625 684.246094 162.40625 729 C 162.40625 773.753906 198.246094 810 243 810 C 287.753906 810 324 773.753906 324 729 C 324 684.246094 287.753906 648 243 648 Z M 0 0 L 0 81 L 81 81 L 226.597656 388.191406 L 171.921875 487.417969 C 165.644531 499.164062 162 512.324219 162 526.5 C 162 571.253906 198.246094 607.5 243 607.5 L 729 607.5 L 729 526.5 L 260.210938 526.5 C 254.542969 526.5 250.085938 522.046875 250.085938 516.375 C 250.085938 514.550781 250.492188 512.933594 251.300781 511.515625 L 287.550781 445.5 L 589.273438 445.5 C 619.648438 445.5 646.175781 428.691406 660.148438 403.785156 L 804.9375 140.941406 C 808.175781 135.269531 810 128.585938 810 121.5 C 810 99.023438 791.773438 81 769.5 81 L 170.707031 81 L 132.234375 0 Z M 648 648 C 603.246094 648 567.40625 684.246094 567.40625 729 C 567.40625 773.753906 603.246094 810 648 810 C 692.753906 810 729 773.753906 729 729 C 729 684.246094 692.753906 648 648 648 Z M 648 648 " fill-opacity="1" fill-rule="nonzero"/></svg>