<svg xmlns="http://www.w3.org/2000/svg" xmlns:xlink="http://www.w3.org/1999/xlink" width="1080" zoomAndPan="magnify" viewBox="0 0 810 809.999993" height="1080" preserveAspectRatio="xMidYMid meet" version="1.0"><defs><clipPath id="6d0dde89c8"><path d="M 105 364 L 704 364 L 704 794.714844 L 105 794.714844 Z M 105 364 " clip-rule="nonzero"/></clipPath></defs><g clip-path="url(#6d0dde89c8)"><path fill="#ffa500" d="M 666.953125 738.148438 C 666.953125 748.515625 658.53125 756.777344 648.324219 756.777344 L 517.429688 756.777344 C 507.058594 756.777344 498.796875 748.355469 498.796875 738.148438 L 498.796875 544.070312 C 498.796875 513.128906 473.6875 488.019531 442.746094 488.019531 L 367.902344 488.019531 C 336.960938 488.019531 311.851562 513.128906 311.851562 544.070312 L 311.851562 738.148438 C 311.851562 748.515625 303.425781 756.777344 293.21875 756.777344 L 161.839844 756.777344 C 151.46875 756.777344 143.207031 748.355469 143.207031 738.148438 L 143.207031 364.089844 L 105.785156 364.089844 L 105.785156 738.148438 C 105.785156 769.089844 130.894531 794.199219 161.839844 794.199219 L 292.734375 794.199219 C 323.675781 794.199219 348.785156 769.089844 348.785156 738.148438 L 348.785156 544.070312 C 348.785156 533.703125 357.210938 525.441406 367.417969 525.441406 L 442.261719 525.441406 C 452.628906 525.441406 460.890625 533.867188 460.890625 544.070312 L 460.890625 738.148438 C 460.890625 769.089844 486 794.199219 516.941406 794.199219 L 647.839844 794.199219 C 678.78125 794.199219 703.890625 769.089844 703.890625 738.148438 L 703.890625 364.089844 L 666.46875 364.089844 Z M 666.953125 738.148438 " fill-opacity="1" fill-rule="nonzero"/></g><path fill="#ffa500" d="M 441.449219 33.933594 C 420.226562 15.789062 389.609375 15.789062 368.386719 33.933594 L 0 349.832031 L 24.300781 378.183594 L 392.851562 62.285156 C 399.976562 56.289062 410.183594 56.289062 417.148438 62.285156 L 785.699219 378.183594 L 810 349.832031 Z M 441.449219 33.933594 " fill-opacity="1" fill-rule="nonzero"/></svg>