<svg xmlns="http://www.w3.org/2000/svg" xmlns:xlink="http://www.w3.org/1999/xlink" width="1080" zoomAndPan="magnify" viewBox="0 0 810 809.999993" height="1080" preserveAspectRatio="xMidYMid meet" version="1.0"><defs><clipPath id="e16ebf7615"><path d="M 81 81 L 729 81 L 729 226.636719 L 81 226.636719 Z M 81 81 " clip-rule="nonzero"/></clipPath><clipPath id="99c9ce7aa1"><path d="M 153.820312 81 L 656.179688 81 C 675.492188 81 694.015625 88.671875 707.671875 102.328125 C 721.328125 115.984375 729 134.507812 729 153.820312 C 729 173.132812 721.328125 191.652344 707.671875 205.308594 C 694.015625 218.964844 675.492188 226.636719 656.179688 226.636719 L 153.820312 226.636719 C 134.507812 226.636719 115.984375 218.964844 102.328125 205.308594 C 88.671875 191.652344 81 173.132812 81 153.820312 C 81 134.507812 88.671875 115.984375 102.328125 102.328125 C 115.984375 88.671875 134.507812 81 153.820312 81 Z M 153.820312 81 " clip-rule="nonzero"/></clipPath><clipPath id="f855e034cf"><path d="M 81 332.179688 L 729 332.179688 L 729 477.820312 L 81 477.820312 Z M 81 332.179688 " clip-rule="nonzero"/></clipPath><clipPath id="99ba66b18e"><path d="M 153.820312 332.179688 L 656.179688 332.179688 C 675.492188 332.179688 694.015625 339.851562 707.671875 353.507812 C 721.328125 367.164062 729 385.6875 729 405 C 729 424.3125 721.328125 442.835938 707.671875 456.492188 C 694.015625 470.148438 675.492188 477.820312 656.179688 477.820312 L 153.820312 477.820312 C 134.507812 477.820312 115.984375 470.148438 102.328125 456.492188 C 88.671875 442.835938 81 424.3125 81 405 C 81 385.6875 88.671875 367.164062 102.328125 353.507812 C 115.984375 339.851562 134.507812 332.179688 153.820312 332.179688 Z M 153.820312 332.179688 " clip-rule="nonzero"/></clipPath><clipPath id="7261411d49"><path d="M 81 583.363281 L 729 583.363281 L 729 729 L 81 729 Z M 81 583.363281 " clip-rule="nonzero"/></clipPath><clipPath id="e66e969e88"><path d="M 153.820312 583.363281 L 656.179688 583.363281 C 675.492188 583.363281 694.015625 591.035156 707.671875 604.691406 C 721.328125 618.347656 729 636.867188 729 656.179688 C 729 675.492188 721.328125 694.015625 707.671875 707.671875 C 694.015625 721.328125 675.492188 729 656.179688 729 L 153.820312 729 C 134.507812 729 115.984375 721.328125 102.328125 707.671875 C 88.671875 694.015625 81 675.492188 81 656.179688 C 81 636.867188 88.671875 618.347656 102.328125 604.691406 C 115.984375 591.035156 134.507812 583.363281 153.820312 583.363281 Z M 153.820312 583.363281 " clip-rule="nonzero"/></clipPath></defs><g clip-path="url(#e16ebf7615)"><g clip-path="url(#99c9ce7aa1)"><path fill="#ffa500" d="M 81 81 L 728.972656 81 L 728.972656 226.636719 L 81 226.636719 Z M 81 81 " fill-opacity="1" fill-rule="nonzero"/></g></g><g clip-path="url(#f855e034cf)"><g clip-path="url(#99ba66b18e)"><path fill="#ffa500" d="M 81 332.179688 L 728.972656 332.179688 L 728.972656 477.820312 L 81 477.820312 Z M 81 332.179688 " fill-opacity="1" fill-rule="nonzero"/></g></g><g clip-path="url(#7261411d49)"><g clip-path="url(#e66e969e88)"><path fill="#ffa500" d="M 81 583.363281 L 728.972656 583.363281 L 728.972656 729 L 81 729 Z M 81 583.363281 " fill-opacity="1" fill-rule="nonzero"/></g></g></svg>