<svg xmlns="http://www.w3.org/2000/svg" xmlns:xlink="http://www.w3.org/1999/xlink" width="1080" zoomAndPan="magnify" viewBox="0 0 810 809.999993" height="1080" preserveAspectRatio="xMidYMid meet" version="1.0"><defs><clipPath id="723380303c"><path d="M 32.644531 0 L 777.394531 0 L 777.394531 810 L 32.644531 810 Z M 32.644531 0 " clip-rule="nonzero"/></clipPath></defs><g clip-path="url(#723380303c)"><path fill="#ffffff" d="M 777.308594 736.855469 L 777.308594 728.671875 C 777.308594 678.433594 767.457031 629.671875 748.03125 583.742188 C 729.277344 539.40625 702.441406 499.59375 668.265625 465.417969 C 634.089844 431.242188 594.277344 404.40625 549.9375 385.652344 C 547.023438 384.417969 544.089844 383.230469 541.136719 382.070312 C 546.71875 377.507812 552.089844 372.65625 557.238281 367.507812 C 576.992188 347.75 592.507812 324.730469 603.355469 299.089844 C 614.59375 272.519531 620.292969 244.324219 620.292969 215.28125 C 620.292969 186.234375 614.59375 158.039062 603.355469 131.46875 C 592.511719 105.828125 576.992188 82.808594 557.238281 63.050781 C 537.480469 43.292969 514.460938 27.777344 488.820312 16.933594 C 462.25 5.695312 434.050781 -0.00390625 405.007812 -0.00390625 C 375.964844 -0.00390625 347.769531 5.695312 321.199219 16.933594 C 295.558594 27.777344 272.539062 43.292969 252.78125 63.050781 C 233.023438 82.808594 217.507812 105.828125 206.664062 131.46875 C 195.425781 158.039062 189.726562 186.234375 189.726562 215.28125 C 189.726562 244.324219 195.425781 272.519531 206.664062 299.089844 C 217.507812 324.730469 233.027344 347.75 252.78125 367.507812 C 257.929688 372.65625 263.300781 377.503906 268.878906 382.066406 C 265.929688 383.230469 262.992188 384.421875 260.078125 385.652344 C 215.742188 404.40625 175.929688 431.242188 141.753906 465.417969 C 107.578125 499.59375 80.738281 539.40625 61.988281 583.742188 C 42.558594 629.671875 32.710938 678.433594 32.710938 728.671875 L 32.710938 736.855469 C 32.710938 775.066406 62.039062 806.554688 99.371094 810.003906 L 715.710938 809.359375 L 715.9375 809.335938 C 722.347656 808.675781 728.566406 806.769531 734.25 803.730469 C 759.625 792.144531 777.308594 766.527344 777.308594 736.855469 Z M 246.339844 282.308594 C 237.359375 261.078125 232.804688 238.527344 232.804688 215.277344 C 232.804688 192.03125 237.359375 169.480469 246.339844 148.25 C 255.011719 127.742188 267.425781 109.328125 283.242188 93.511719 C 299.054688 77.699219 317.472656 65.28125 337.980469 56.609375 C 359.210938 47.628906 381.761719 43.074219 405.007812 43.074219 C 428.257812 43.074219 450.808594 47.628906 472.039062 56.609375 C 492.546875 65.28125 510.960938 77.699219 526.777344 93.511719 C 542.589844 109.328125 555.007812 127.742188 563.679688 148.25 C 572.660156 169.480469 577.210938 192.03125 577.210938 215.277344 C 577.210938 238.527344 572.660156 261.078125 563.679688 282.308594 C 555.007812 302.8125 542.589844 321.230469 526.777344 337.042969 C 510.960938 352.859375 492.546875 365.277344 472.039062 373.949219 C 450.808594 382.929688 428.257812 387.480469 405.007812 387.480469 C 381.761719 387.480469 359.210938 382.929688 337.980469 373.949219 C 317.472656 365.277344 299.054688 352.859375 283.242188 337.042969 C 267.425781 321.230469 255.011719 302.8125 246.339844 282.308594 Z M 734.230469 736.855469 C 734.230469 753.613281 720.597656 767.246094 703.839844 767.246094 L 106.175781 767.246094 C 89.417969 767.246094 75.785156 753.613281 75.785156 736.855469 L 75.785156 728.671875 C 75.785156 684.230469 84.492188 641.117188 101.660156 600.523438 C 118.238281 561.320312 141.980469 526.113281 172.210938 495.875 C 202.445312 465.644531 237.652344 441.902344 276.859375 425.324219 C 285.5 421.667969 294.378906 418.355469 303.246094 415.46875 C 303.25 415.46875 303.25 415.46875 303.25 415.46875 C 306.339844 414.460938 309.488281 413.492188 312.605469 412.578125 C 313.765625 412.242188 314.867188 411.808594 315.921875 411.300781 C 317.667969 412.097656 319.425781 412.871094 321.195312 413.621094 C 347.765625 424.863281 375.964844 430.558594 405.007812 430.558594 C 434.050781 430.558594 462.25 424.859375 488.816406 413.621094 C 490.589844 412.871094 492.347656 412.097656 494.09375 411.300781 C 495.148438 411.808594 496.253906 412.242188 497.414062 412.578125 C 509.472656 416.105469 521.5 420.394531 533.15625 425.324219 C 572.363281 441.90625 607.570312 465.644531 637.804688 495.875 C 668.035156 526.113281 691.777344 561.320312 708.355469 600.523438 C 725.523438 641.113281 734.230469 684.230469 734.230469 728.671875 Z M 734.230469 736.855469 " fill-opacity="1" fill-rule="nonzero"/></g></svg>