<?xml version="1.0" encoding="UTF-8"?>
<svg id="Layer_1" xmlns="http://www.w3.org/2000/svg" version="1.1" viewBox="0 0 1024 1024">
  <!-- Generator: Adobe Illustrator 29.5.1, SVG Export Plug-In . SVG Version: 2.1.0 Build 141)  -->
  <defs>
    <style>
      .st0 {
        fill: #241945;
      }
    </style>
  </defs>
  <path class="st0" d="M834.1,469.2c-19.41-43.69-47.64-82.91-82.9-115.2l-29.1-26.7c-3.33-2.97-8.45-2.68-11.42.65-.69.77-1.23,1.67-1.58,2.65l-13,37.3c-8.1,23.4-23,47.3-44.1,70.8-1.4,1.5-3,1.9-4.1,2s-2.8-.1-4.3-1.5c-1.4-1.2-2.1-3-2-4.8,3.7-60.2-14.3-128.1-53.7-202-32.6-61.4-77.9-109.3-134.5-142.7l-41.3-24.3c-5.4-3.2-12.3,1-12,7.3l2.2,48c1.5,32.8-2.3,61.8-11.3,85.9-11,29.5-26.8,56.9-47,81.5-14.06,17.1-29.99,32.56-47.5,46.1-42.17,32.42-76.46,73.95-100.3,121.5-23.78,47.96-36.17,100.77-36.2,154.3,0,47.2,9.3,92.9,27.7,136,17.77,41.5,43.41,79.16,75.5,110.9,32.4,32,70,57.2,111.9,74.7,43.4,18.2,89.4,27.4,136.9,27.4s93.5-9.2,136.9-27.3c41.8-17.4,79.8-42.77,111.9-74.7,32.4-32,57.8-69.4,75.5-110.9,18.37-42.98,27.8-89.26,27.7-136,0-48.8-10-96.2-29.9-140.9h0Z"/>
</svg>