<?xml version="1.0" encoding="utf-8"?>
<!-- Generator: Adobe Illustrator 29.5.1, SVG Export Plug-In . SVG Version: 9.03 Build 0)  -->
<svg version="1.0" id="Layer_1" xmlns="http://www.w3.org/2000/svg" xmlns:xlink="http://www.w3.org/1999/xlink" x="0px" y="0px"
	 viewBox="0 0 1080 1080" style="enable-background:new 0 0 1080 1080;" xml:space="preserve">
<style type="text/css">
	.st0{clip-path:url(#SVGID_00000180356645952951658030000018249011648347767681_);}
	.st1{fill:#00C2CB;}
</style>
<g>
	<defs>
		<rect id="SVGID_1_" x="140" y="485.33" width="798.67" height="574.29"/>
	</defs>
	<clipPath id="SVGID_00000083782796081801874420000018070324555413904545_">
		<use xlink:href="#SVGID_1_"  style="overflow:visible;"/>
	</clipPath>
	<g style="clip-path:url(#SVGID_00000083782796081801874420000018070324555413904545_);">
		<path class="st1" d="M889.27,984.2c0,13.82-11.23,24.84-24.84,24.84H689.91c-13.83,0-24.84-11.23-24.84-24.84V725.43
			c0-41.26-33.48-74.73-74.73-74.73h-99.79c-41.26,0-74.73,33.48-74.73,74.73V984.2c0,13.82-11.23,24.84-24.84,24.84H215.79
			c-13.83,0-24.84-11.23-24.84-24.84V485.45h-49.9V984.2c0,41.26,33.48,74.73,74.74,74.73h174.53c41.26,0,74.73-33.48,74.73-74.73
			V725.43c0-13.82,11.23-24.84,24.84-24.84h99.79c13.82,0,24.84,11.23,24.84,24.84V984.2c0,41.26,33.48,74.73,74.73,74.73h174.53
			c41.26,0,74.73-33.48,74.73-74.73V485.45h-49.9L889.27,984.2z"/>
	</g>
</g>
<path class="st1" d="M588.6,45.24c-28.3-24.19-69.12-24.19-97.42,0L0,466.44l32.4,37.8l491.4-421.2c9.5-7.99,23.11-7.99,32.4,0
	l491.4,421.2l32.4-37.8L588.6,45.24z"/>
</svg>
