<?xml version="1.0" encoding="utf-8"?>
<!-- Generator: Adobe Illustrator 29.5.1, SVG Export Plug-In . SVG Version: 9.03 Build 0)  -->
<svg version="1.0" id="Layer_1" xmlns="http://www.w3.org/2000/svg" xmlns:xlink="http://www.w3.org/1999/xlink" x="0px" y="0px"
	 viewBox="0 0 1080 1080" style="enable-background:new 0 0 1080 1080;" xml:space="preserve">
<style type="text/css">
	.st0{clip-path:url(#SVGID_00000158716345758448278710000014033373220333544888_);}
	.st1{clip-path:url(#SVGID_00000106116427844731038060000014490401162744112786_);}
	.st2{fill:#241945;}
	.st3{clip-path:url(#SVGID_00000022536102670173554040000013430508664123570830_);}
	.st4{clip-path:url(#SVGID_00000144309427524078161390000017311562663119821491_);}
	.st5{clip-path:url(#SVGID_00000128443913825875612800000002908740915055179919_);}
	.st6{clip-path:url(#SVGID_00000160902755125158644840000000371975325180735120_);}
</style>
<g>
	<defs>
		<rect id="SVGID_1_" x="108" y="108" width="864" height="194.18"/>
	</defs>
	<use xlink:href="#SVGID_1_"  style="overflow:visible;fill:#241945;"/>
	<clipPath id="SVGID_00000158013240483609221620000012070217531423185542_">
		<use xlink:href="#SVGID_1_"  style="overflow:visible;"/>
	</clipPath>
	<g style="clip-path:url(#SVGID_00000158013240483609221620000012070217531423185542_);">
		<g>
			<defs>
				<path id="SVGID_00000180337715335096574510000010751250764472396702_" d="M205.09,108h669.81c25.75,0,50.45,10.23,68.66,28.44
					c18.21,18.21,28.44,42.91,28.44,68.66s-10.23,50.44-28.44,68.65c-18.21,18.21-42.91,28.44-68.66,28.44H205.09
					c-25.75,0-50.45-10.23-68.66-28.44S108,230.84,108,205.09s10.23-50.45,28.44-68.66C154.65,118.23,179.34,108,205.09,108z"/>
			</defs>
			<use xlink:href="#SVGID_00000180337715335096574510000010751250764472396702_"  style="overflow:visible;fill:#241945;"/>
			<clipPath id="SVGID_00000049912716424868328040000009026186257741466297_">
				<use xlink:href="#SVGID_00000180337715335096574510000010751250764472396702_"  style="overflow:visible;"/>
			</clipPath>
			<g style="clip-path:url(#SVGID_00000049912716424868328040000009026186257741466297_);">
				<path class="st2" d="M108,108h863.96v194.18H108V108z"/>
			</g>
		</g>
	</g>
</g>
<g>
	<defs>
		<rect id="SVGID_00000091735244040165610470000003535560441339401620_" x="108" y="442.91" width="864" height="194.19"/>
	</defs>
	<use xlink:href="#SVGID_00000091735244040165610470000003535560441339401620_"  style="overflow:visible;fill:#241945;"/>
	<clipPath id="SVGID_00000148652914248668650530000001436500616937927571_">
		<use xlink:href="#SVGID_00000091735244040165610470000003535560441339401620_"  style="overflow:visible;"/>
	</clipPath>
	<g style="clip-path:url(#SVGID_00000148652914248668650530000001436500616937927571_);">
		<g>
			<defs>
				<path id="SVGID_00000048477816618423898470000013946259423087902900_" d="M205.09,442.91h669.81
					c25.75,0,50.45,10.23,68.66,28.44C961.77,489.55,972,514.25,972,540s-10.23,50.45-28.44,68.66
					c-18.21,18.21-42.91,28.44-68.66,28.44H205.09c-25.75,0-50.45-10.23-68.66-28.44C118.23,590.45,108,565.75,108,540
					s10.23-50.45,28.44-68.66C154.65,453.14,179.34,442.91,205.09,442.91z"/>
			</defs>
			<use xlink:href="#SVGID_00000048477816618423898470000013946259423087902900_"  style="overflow:visible;fill:#241945;"/>
			<clipPath id="SVGID_00000160161031466827887720000000614059034715115687_">
				<use xlink:href="#SVGID_00000048477816618423898470000013946259423087902900_"  style="overflow:visible;"/>
			</clipPath>
			<g style="clip-path:url(#SVGID_00000160161031466827887720000000614059034715115687_);">
				<path class="st2" d="M108,442.91h863.96v194.19H108V442.91z"/>
			</g>
		</g>
	</g>
</g>
<g>
	<defs>
		<rect id="SVGID_00000155109684559997290100000011523776497140705671_" x="108" y="777.82" width="864" height="194.18"/>
	</defs>
	<use xlink:href="#SVGID_00000155109684559997290100000011523776497140705671_"  style="overflow:visible;fill:#241945;"/>
	<clipPath id="SVGID_00000119096031350269012160000003974363336788586131_">
		<use xlink:href="#SVGID_00000155109684559997290100000011523776497140705671_"  style="overflow:visible;"/>
	</clipPath>
	<g style="clip-path:url(#SVGID_00000119096031350269012160000003974363336788586131_);">
		<g>
			<defs>
				<path id="SVGID_00000083774610022734124870000003645035947628019391_" d="M205.09,777.82h669.81
					c25.75,0,50.45,10.23,68.66,28.44c18.21,18.21,28.44,42.9,28.44,68.65s-10.23,50.45-28.44,68.66
					C925.35,961.77,900.66,972,874.91,972H205.09c-25.75,0-50.45-10.23-68.66-28.44C118.23,925.35,108,900.66,108,874.91
					s10.23-50.44,28.44-68.65C154.65,788.05,179.34,777.82,205.09,777.82z"/>
			</defs>
			<use xlink:href="#SVGID_00000083774610022734124870000003645035947628019391_"  style="overflow:visible;fill:#241945;"/>
			<clipPath id="SVGID_00000109006590398184968510000005959141997885813692_">
				<use xlink:href="#SVGID_00000083774610022734124870000003645035947628019391_"  style="overflow:visible;"/>
			</clipPath>
			<g style="clip-path:url(#SVGID_00000109006590398184968510000005959141997885813692_);">
				<path class="st2" d="M108,777.82h863.96V972H108V777.82z"/>
			</g>
		</g>
	</g>
</g>
</svg>
