<?xml version="1.0" encoding="utf-8"?>
<!-- Generator: Adobe Illustrator 29.5.1, SVG Export Plug-In . SVG Version: 9.03 Build 0)  -->
<svg version="1.0" id="Layer_1" xmlns="http://www.w3.org/2000/svg" xmlns:xlink="http://www.w3.org/1999/xlink" x="0px" y="0px"
	 viewBox="0 0 1080 1080" style="enable-background:new 0 0 1080 1080;" xml:space="preserve">
<style type="text/css">
	.st0{clip-path:url(#SVGID_00000142879385918264212440000016126995920485798814_);}
	.st1{clip-path:url(#SVGID_00000034079397437179861680000004467172429353028000_);}
	.st2{fill:#00C2CB;}
	.st3{clip-path:url(#SVGID_00000065779255780908182430000012380661419940678815_);}
	.st4{clip-path:url(#SVGID_00000119834437804780947340000011270682251864683147_);}
	.st5{clip-path:url(#SVGID_00000037688504314448436030000002995495567564388013_);}
	.st6{clip-path:url(#SVGID_00000075156216650005597660000000010093843889413802_);}
</style>
<g>
	<defs>
		<rect id="SVGID_1_" x="108" y="108" width="864" height="194.18"/>
	</defs>
	<clipPath id="SVGID_00000050649355259285027710000013482005663976640175_">
		<use xlink:href="#SVGID_1_"  style="overflow:visible;"/>
	</clipPath>
	<g style="clip-path:url(#SVGID_00000050649355259285027710000013482005663976640175_);">
		<g>
			<defs>
				<path id="SVGID_00000098219499300523233920000010146040475363646143_" d="M205.09,108h669.81c25.75,0,50.45,10.23,68.66,28.44
					c18.21,18.21,28.44,42.91,28.44,68.66s-10.23,50.44-28.44,68.65c-18.21,18.21-42.91,28.44-68.66,28.44H205.09
					c-25.75,0-50.45-10.23-68.66-28.44S108,230.84,108,205.09s10.23-50.45,28.44-68.66C154.65,118.23,179.34,108,205.09,108z"/>
			</defs>
			<clipPath id="SVGID_00000142884041970485044650000015180799664247900301_">
				<use xlink:href="#SVGID_00000098219499300523233920000010146040475363646143_"  style="overflow:visible;"/>
			</clipPath>
			<g style="clip-path:url(#SVGID_00000142884041970485044650000015180799664247900301_);">
				<path class="st2" d="M108,108h863.96v194.18H108V108z"/>
			</g>
		</g>
	</g>
</g>
<g>
	<defs>
		<rect id="SVGID_00000145021591281979509530000016168908685764284040_" x="108" y="442.91" width="864" height="194.19"/>
	</defs>
	<clipPath id="SVGID_00000158008986555802687040000013203004891267308963_">
		<use xlink:href="#SVGID_00000145021591281979509530000016168908685764284040_"  style="overflow:visible;"/>
	</clipPath>
	<g style="clip-path:url(#SVGID_00000158008986555802687040000013203004891267308963_);">
		<g>
			<defs>
				<path id="SVGID_00000039132011226575262800000014873357821326700444_" d="M205.09,442.91h669.81
					c25.75,0,50.45,10.23,68.66,28.44C961.77,489.55,972,514.25,972,540s-10.23,50.45-28.44,68.66
					c-18.21,18.21-42.91,28.44-68.66,28.44H205.09c-25.75,0-50.45-10.23-68.66-28.44C118.23,590.45,108,565.75,108,540
					s10.23-50.45,28.44-68.66C154.65,453.14,179.34,442.91,205.09,442.91z"/>
			</defs>
			<clipPath id="SVGID_00000131354462076749813790000013028325829440139907_">
				<use xlink:href="#SVGID_00000039132011226575262800000014873357821326700444_"  style="overflow:visible;"/>
			</clipPath>
			<g style="clip-path:url(#SVGID_00000131354462076749813790000013028325829440139907_);">
				<path class="st2" d="M108,442.91h863.96v194.19H108V442.91z"/>
			</g>
		</g>
	</g>
</g>
<g>
	<defs>
		<rect id="SVGID_00000151524789440565386510000017158296716291190173_" x="108" y="777.82" width="864" height="194.18"/>
	</defs>
	<clipPath id="SVGID_00000027576491743193492030000015057643292676533139_">
		<use xlink:href="#SVGID_00000151524789440565386510000017158296716291190173_"  style="overflow:visible;"/>
	</clipPath>
	<g style="clip-path:url(#SVGID_00000027576491743193492030000015057643292676533139_);">
		<g>
			<defs>
				<path id="SVGID_00000165199032087089586710000013600660705804363951_" d="M205.09,777.82h669.81
					c25.75,0,50.45,10.23,68.66,28.44c18.21,18.21,28.44,42.9,28.44,68.65s-10.23,50.45-28.44,68.66
					C925.35,961.77,900.66,972,874.91,972H205.09c-25.75,0-50.45-10.23-68.66-28.44C118.23,925.35,108,900.66,108,874.91
					s10.23-50.44,28.44-68.65C154.65,788.05,179.34,777.82,205.09,777.82z"/>
			</defs>
			<clipPath id="SVGID_00000008845286506509752980000015857906860747441335_">
				<use xlink:href="#SVGID_00000165199032087089586710000013600660705804363951_"  style="overflow:visible;"/>
			</clipPath>
			<g style="clip-path:url(#SVGID_00000008845286506509752980000015857906860747441335_);">
				<path class="st2" d="M108,777.82h863.96V972H108V777.82z"/>
			</g>
		</g>
	</g>
</g>
</svg>
