<?xml version="1.0" encoding="UTF-8"?>
<svg id="Layer_1" xmlns="http://www.w3.org/2000/svg" version="1.1" viewBox="0 0 800 800">
  <!-- Generator: Adobe Illustrator 29.5.1, SVG Export Plug-In . SVG Version: 2.1.0 Build 141)  -->
  <defs>
    <style>
      .st0 {
        fill: #00c2cb;
      }
    </style>
  </defs>
  <path class="st0" d="M439.22,0C240.28,0,78.44,161.85,78.44,360.78c0,70.5,20.34,136.33,55.44,191.96l-110.4,110.4c-31.31,31.31-31.31,82.07,0,113.38,31.31,31.31,82.07,31.31,113.38,0l110.4-110.4c55.63,35.1,121.46,55.44,191.96,55.44,198.93,0,360.78-161.85,360.78-360.78S638.16,0,439.22,0ZM439.22,641.39c-154.73,0-280.61-125.88-280.61-280.61S284.49,80.17,439.22,80.17s280.61,125.88,280.61,280.61-125.88,280.61-280.61,280.61h0Z"/>
</svg>